<svg xmlns="http://www.w3.org/2000/svg" viewBox="0 0 100 100" width="32" height="32">
  <rect width="100" height="100" rx="20" fill="#1a1a1a"/>
  <path d="M30 20v60l20-15 20 15V20H30z" fill="#4a4a4a"/>
  <circle cx="50" cy="50" r="15" fill="#808080"/>
  <path d="M50 38.5c-6.4 0-11.5 5.1-11.5 11.5 0 5.1 3.3 9.4 7.9 10.9.6.1.8-.2.8-.5v-2c-3.2.7-3.9-1.5-3.9-1.5-.5-1.3-1.2-1.7-1.2-1.7-1-.7.1-.7.1-.7 1.1.1 1.7 1.1 1.7 1.1 1 1.7 2.6 1.2 3.2.9.1-.7.4-1.2.7-1.5-2.6-.3-5.3-1.3-5.3-5.8 0-1.3.5-2.3 1.1-3.2-.1-.3-.5-1.5.1-3.1 0 0 .9-.3 3 1.1.9-.2 1.8-.3 2.8-.3s1.9.1 2.8.3c2.1-1.4 3-1.1 3-1.1.6 1.6.2 2.8.1 3.1.7.9 1.1 1.9 1.1 3.2 0 4.5-2.7 5.5-5.3 5.8.4.3.7.9.7 1.9v2.8c0 .3.2.6.8.5 4.6-1.5 7.9-5.8 7.9-10.9 0-6.4-5.1-11.5-11.5-11.5z" fill="#e0e0e0"/>
</svg>